<?xml version="1.0" encoding="UTF-8" standalone="no"?>
<svg
   xmlns:dc="http://purl.org/dc/elements/1.1/"
   xmlns:cc="http://creativecommons.org/ns#"
   xmlns:rdf="http://www.w3.org/1999/02/22-rdf-syntax-ns#"
   xmlns:svg="http://www.w3.org/2000/svg"
   xmlns="http://www.w3.org/2000/svg"
   id="svg8"
   version="1.1"
   viewBox="0 0 8.9164581 10.027708"
   height="10.027708mm"
   width="8.9164581mm">
  <defs
     id="defs2" />
  <metadata
     id="metadata5">
    <rdf:RDF>
      <cc:Work
         rdf:about="">
        <dc:format>image/svg+xml</dc:format>
        <dc:type
           rdf:resource="http://purl.org/dc/dcmitype/StillImage" />
        <dc:title></dc:title>
      </cc:Work>
    </rdf:RDF>
  </metadata>
  <g
     transform="translate(-34.045829,-65.674786)"
     id="layer1">
    <path
       style="stroke-width:0.26458332"
       d="m 42.27437,67.791452 v 6.799792 c 0,0.608542 -0.502708,1.11125 -1.11125,1.11125 h -5.291666 c -0.608542,0 -1.11125,-0.502708 -1.11125,-1.11125 v -6.799792 c 0,-0.15875 0.105833,-0.264583 0.264583,-0.264583 0.15875,0 0.264583,0.105833 0.264583,0.264583 v 6.799792 c 0,0.3175 0.264584,0.582083 0.582084,0.582083 h 5.291666 c 0.3175,0 0.582084,-0.264583 0.582084,-0.582083 v -6.799792 c 0,-0.15875 0.105833,-0.264583 0.264583,-0.264583 0.15875,0 0.264583,0.132292 0.264583,0.264583 z m 0.449792,-1.42875 H 38.78187 v -0.423333 c 0,-0.15875 -0.105833,-0.264583 -0.264583,-0.264583 -0.15875,0 -0.264583,0.105833 -0.264583,0.264583 v 0.423333 h -3.942292 c -0.15875,0 -0.264583,0.105834 -0.264583,0.264584 0,0.15875 0.105833,0.264583 0.264583,0.264583 h 8.387292 c 0.15875,0 0.264583,-0.105833 0.264583,-0.264583 0,-0.15875 -0.105833,-0.264584 -0.238125,-0.264584 z m -5.87375,6.376459 c 0.05292,0.05292 0.132292,0.07937 0.185208,0.07937 0.05292,0 0.132292,-0.02646 0.185209,-0.07937 l 1.296458,-1.296459 1.296458,1.296459 c 0.05292,0.05292 0.132292,0.07937 0.185209,0.07937 0.05292,0 0.132291,-0.02646 0.185208,-0.07937 0.105833,-0.105834 0.105833,-0.264584 0,-0.370417 l -1.296458,-1.296458 1.296458,-1.296459 c 0.105833,-0.105833 0.105833,-0.264583 0,-0.370416 -0.105833,-0.105834 -0.264583,-0.105834 -0.370417,0 l -1.296458,1.296458 -1.296458,-1.296458 c -0.105834,-0.105834 -0.264584,-0.105834 -0.370417,0 -0.105833,0.105833 -0.105833,0.264583 0,0.370416 l 1.296458,1.296459 -1.296458,1.296458 c -0.105833,0.105833 -0.105833,0.264583 0,0.370417 z"
       id="path902" />
  </g>
  <style
     type="text/css"
     id="style900">
	.st0{fill:none;}
</style>
</svg>
